General
Complete name                    : Inside.Ring aka Ultimate.Heist.2009.avi
Format                           : AVI
File size                        : 1.37 GiB
Duration                         : 1h 31mn
Overall bit rate                 : 2 150 Kbps

Video

Format                           : MPEG-4 Visual
Codec ID/Hint                    : XviD
Duration                         : 1h 31mn
Bit rate                         : 1 691 Kbps
Width                            : 720 pixels
Height                           : 438 pixels
Display aspect ratio             : 2.35:1
Stream size                      : 1.08 GiB (79%)
Writing library                  : XviD 1.1.2 (UTC 2006-11-01)

Audio

Format                           : AC-3
Duration                         : 1h 31mn
Bit rate                         : 448 Kbps
Channel(s)                       : 6 channels
Channel positions                : Front: L C R, Side: L R, LFE
Sampling rate                    : 48.0 KHz
Stream size                      : 292 MiB (21%)


